<svg xmlns="http://www.w3.org/2000/svg" viewBox="0 0 100 100" fill="none">
    <defs>
        <linearGradient id="mark-gradient" x1="12" y1="86" x2="68" y2="12" gradientUnits="userSpaceOnUse">
            <stop offset="0" stop-color="#0284c7"/>
            <stop offset="0.5" stop-color="#2563eb"/>
            <stop offset="1" stop-color="#7c3aed"/>
        </linearGradient>
    </defs>
    <g stroke="url(#mark-gradient)" stroke-width="7.4" stroke-linecap="round" stroke-linejoin="round">
        <path d="M43 15v28L30 54"/>
        <path d="M58 15v32l-9 8"/>
        <path d="M70 27v22l-11 10"/>
        <path d="M18 76l15-14 18 10v14"/>
        <path d="M30 88l14-11h19l14 11"/>
        <path d="M83 77 69 64l-17 8"/>
        <path d="M9 65l18-12 18 10"/>
        <path d="M91 65 72 53 55 62"/>
        <path d="M33 62l14-11"/>
        <path d="M58 76V60"/>
        <path d="M42 55c8-1 10-10 20-9 6 1 8 8 3 12-6 5-16 3-21 12"/>
    </g>
    <g fill="url(#mark-gradient)">
        <circle cx="43" cy="15" r="7.2"/>
        <circle cx="58" cy="15" r="7.2"/>
        <circle cx="70" cy="27" r="7.2"/>
        <circle cx="9" cy="65" r="7.2"/>
        <circle cx="18" cy="76" r="7.2"/>
        <circle cx="30" cy="88" r="7.2"/>
        <circle cx="77" cy="88" r="7.2"/>
        <circle cx="83" cy="77" r="7.2"/>
        <circle cx="91" cy="65" r="7.2"/>
        <circle cx="58" cy="76" r="7.2"/>
    </g>
</svg>
